<svg width="15" height="15" viewBox="0 0 15 15" fill="none" xmlns="http://www.w3.org/2000/svg">
<path d="M9.375 3.75V11.25C9.375 11.6208 9.48497 11.9834 9.691 12.2917C9.89702 12.6 10.1899 12.8404 10.5325 12.9823C10.8751 13.1242 11.2521 13.1613 11.6158 13.089C11.9795 13.0166 12.3136 12.8381 12.5758 12.5758C12.8381 12.3136 13.0166 11.9795 13.089 11.6158C13.1613 11.2521 13.1242 10.8751 12.9823 10.5325C12.8404 10.1899 12.6 9.89702 12.2917 9.691C11.9834 9.48497 11.6208 9.375 11.25 9.375H3.75C3.37916 9.375 3.01665 9.48497 2.70831 9.691C2.39996 9.89702 2.15964 10.1899 2.01773 10.5325C1.87581 10.8751 1.83868 11.2521 1.91103 11.6158C1.98338 11.9795 2.16195 12.3136 2.42418 12.5758C2.6864 12.8381 3.02049 13.0166 3.38421 13.089C3.74792 13.1613 4.12492 13.1242 4.46753 12.9823C4.81014 12.8404 5.10298 12.6 5.30901 12.2917C5.51503 11.9834 5.625 11.6208 5.625 11.25V3.75C5.625 3.37916 5.51503 3.01665 5.30901 2.70831C5.10298 2.39996 4.81014 2.15964 4.46753 2.01773C4.12492 1.87581 3.74792 1.83868 3.38421 1.91103C3.02049 1.98338 2.6864 2.16195 2.42418 2.42418C2.16195 2.6864 1.98338 3.02049 1.91103 3.38421C1.83868 3.74792 1.87581 4.12492 2.01773 4.46753C2.15964 4.81014 2.39996 5.10298 2.70831 5.30901C3.01665 5.51503 3.37916 5.625 3.75 5.625H11.25C11.6208 5.625 11.9834 5.51503 12.2917 5.30901C12.6 5.10298 12.8404 4.81014 12.9823 4.46753C13.1242 4.12492 13.1613 3.74792 13.089 3.38421C13.0166 3.02049 12.8381 2.6864 12.5758 2.42418C12.3136 2.16195 11.9795 1.98338 11.6158 1.91103C11.2521 1.83868 10.8751 1.87581 10.5325 2.01773C10.1899 2.15964 9.89702 2.39996 9.691 2.70831C9.48497 3.01665 9.375 3.37916 9.375 3.75Z" stroke="#11131D" stroke-width="1.25" stroke-linecap="round" stroke-linejoin="round"/>
</svg>
