<svg width="12" height="13" viewBox="0 0 12 13" fill="none" xmlns="http://www.w3.org/2000/svg">
<path d="M1.16845 7.58453C1.05807 7.5849 0.949837 7.55395 0.856342 7.49526C0.762847 7.43658 0.687922 7.35257 0.640273 7.25299C0.592624 7.15342 0.574207 7.04237 0.587161 6.93274C0.600114 6.82312 0.643908 6.71942 0.713453 6.63369L6.48845 0.683694C6.53177 0.633691 6.5908 0.599902 6.65586 0.587871C6.72091 0.575841 6.78813 0.586284 6.84646 0.617488C6.9048 0.648691 6.95079 0.6988 6.9769 0.75959C7.003 0.82038 7.00766 0.888238 6.99012 0.952027L5.87012 4.46369C5.83709 4.55208 5.826 4.64716 5.8378 4.74078C5.84959 4.8344 5.88392 4.92376 5.93784 5.00119C5.99176 5.07863 6.06365 5.14183 6.14736 5.18537C6.23107 5.22891 6.3241 5.2515 6.41845 5.25119H10.5018C10.6122 5.25082 10.7204 5.28177 10.8139 5.34046C10.9074 5.39914 10.9823 5.48315 11.03 5.58273C11.0776 5.6823 11.096 5.79335 11.0831 5.90298C11.0701 6.0126 11.0263 6.1163 10.9568 6.20203L5.18179 12.152C5.13847 12.202 5.07943 12.2358 5.01438 12.2478C4.94933 12.2599 4.88211 12.2494 4.82378 12.2182C4.76544 12.187 4.71944 12.1369 4.69334 12.0761C4.66724 12.0153 4.66257 11.9475 4.68012 11.8837L5.80012 8.37203C5.83314 8.28364 5.84424 8.18856 5.83244 8.09494C5.82065 8.00132 5.78632 7.91196 5.7324 7.83453C5.67848 7.75709 5.60658 7.69389 5.52287 7.65035C5.43917 7.60681 5.34614 7.58422 5.25179 7.58453H1.16845Z" fill="#2B1A00" stroke="#2B1A00" stroke-width="1.16625" stroke-linecap="round" stroke-linejoin="round"/>
</svg>
